{"title":"Dark Tide 2012 DVDrip English Klam","uid":7106735,"size":1855118075,"categoryP":"video","categoryS":"movies","magnet":"?xt=urn:btih:002605952a76d3033b771e8ee2ff6883d9781551&amp;dn=Dark+Tide+2012+DVDrip+English+Klam&amp;tr=udp%3A%2F%2Ftracker.openbittorrent.com%3A80&amp;tr=udp%3A%2F%2Fopen.demonii.com%3A1337&amp;tr=udp%3A%2F%2Ftracker.coppersurfer.tk%3A6969&amp;tr=udp%3A%2F%2Fexodus.desync.com%3A6969","seeders":0,"leechers":0,"uploader":"Klambake","files":-1,"time":1331890259,"description":"With: Halle Berry, Olivier Martinez and Ralph Brown\n\nDe duikinstructrice Kate Mathieson (Halle Berry), die een bijna-doodervaring heeft gehad met een grote witte haai, keert terug naar de diepe wateren met een kleine groep marinebiologen en toeristen. De uitstap wordt echter problematisch wanneer ze schipbreuk lijden op een klein rotseilandje dat omgeven wordt door grote witte haaien en ze een manier moeten vinden om te ontsnappen.\n\nA professional diver tutor Brady returns to deep waters after nine years following an almost fatal encounter with a great white shark, bringing a happy couple Kate and Jeff. However, before they know it they discover that the nightmare from the deep is still lurking in the deep, more carnivorous and hungry than ever. \n\n------------------------ Dutch Friends ------------------------\n---------------------------------------------------------------\n- Bezoek ook eens mijn vrienden op: &lt;a href=&quot; http://www.Film-Test.nl&quot; rel=&quot;nofollow&quot; target=&quot;_NEW&quot;&gt; http://www.Film-Test.nl&lt;/a&gt; --\n----- voor mijn Nederlandse Sync. ondertitels ---- en meer ----\n------- http://www.Film-Test.nl ---- voor Films en meer -------\n---------------------------------------------------------------\n\nGeneral:\n\nComplete name                    : Dark TideDark Tide.avi\nFormat                           : AVI\nFormat/Info                      : Audio Video Interleave\nFile size                        : 1.73 GiB\nDuration                         : 1h 53mn\nOverall bit rate                 : 2 175 Kbps\n\nVideo:\n\nFormat                           : MPEG-4 Visual\nFormat profile                   : Simple@L3\nFormat settings, BVOP            : No\nFormat settings, QPel            : No\nFormat settings, GMC             : No warppoints\nFormat settings, Matrix          : Default (H.263)\nCodec ID                         : XVID\nCodec ID/Hint                    : XviD\nDuration                         : 1h 53mn\nBit rate                         : 1 781 Kbps\nWidth                            : 720 pixels\nHeight                           : 304 pixels\nDisplay aspect ratio             : 2.35:1\nFrame rate                       : 25.000 fps\nColor space                      : YUV\nChroma subsampling               : 4:2:0\nBit depth                        : 8 bits\nScan type                        : Progressive\nCompression mode                 : Lossy\nBits/(Pixel*Frame)               : 0.325\nStream size                      : 1.41 GiB (82%)\nWriting library                  : XviD 1.1.2 (UTC 2006-11-01)\n\nAudio:\n\nFormat                           : AC-3\nFormat/Info                      : Audio Coding 3\nMode extension                   : CM (complete main)\nCodec ID                         : 2000\nDuration                         : 1h 53mn\nBit rate mode                    : Constant\nBit rate                         : 384 Kbps\nChannel(s)                       : 6 channels\nChannel positions                : Front: L C R, Side: L R, LFE\nSampling rate                    : 48.0 KHz\nBit depth                        : 16 bits\nCompression mode                 : Lossy\nStream size                      : 312 MiB (18%)\nAlignment                        : Aligned on interleaves\nInterleave, duration             : 32 ms (0.80 video frame)\n\n","torrent":{"xt":"urn:btih:002605952a76d3033b771e8ee2ff6883d9781551","amp;dn":"Dark+Tide+2012+DVDrip+English+Klam","amp;tr":["udp%3A%2F%2Ftracker.openbittorrent.com%3A80","udp%3A%2F%2Fopen.demonii.com%3A1337","udp%3A%2F%2Ftracker.coppersurfer.tk%3A6969","udp%3A%2F%2Fexodus.desync.com%3A6969"],"infoHash":"002605952a76d3033b771e8ee2ff6883d9781551","infoHashBuffer":{"type":"Buffer","data":[0,38,5,149,42,118,211,3,59,119,30,142,226,255,104,131,217,120,21,81]},"announce":[],"urlList":[]}}